General
Unique ID                                : 231589470123548970112458907412589034251 (0xAE3D79B2F50C10E89410D6A7BF34110B)
Complete name                            : BIONICLE.3.Web.of.Shadows.2005.NTSC.DVD.Remux.MPEG-2.DD5.1-ARCHIVE.mkv
Format                                   : Matroska
Format version                           : Version 4
File size                                : 4.38 GiB
Duration                                 : 1 h 14 min 32 s
Overall bit rate mode                    : Variable
Overall bit rate                         : 8 402 kb/s
Movie name                               : BIONICLE® 3: Web of Shadows
Encoded date                             : UTC 2025-10-11 12:05:00
Writing application                      : mkvmerge v59.0.0 ('The Next Dimension') 64-bit
Writing library                          : libebml v1.4.2 + libmatroska v1.6.4

Video
ID                                       : 1
Format                                   : MPEG Video
Format version                           : Version 2
Format profile                           : Main@Main
Format settings                          : BVOP
Format settings, BVOP                    : Yes
Format settings, Matrix                  : Custom
Format settings, GOP                     : Variable
Format settings, picture structure       : Frame
Codec ID                                 : V_MPEG2
Codec ID/Info                            : MPEG 1 or 2 Video
Duration                                 : 1 h 14 min 32 s
Bit rate mode                            : Variable
Bit rate                                 : 7 240 kb/s
Maximum bit rate                         : 9 800 kb/s
Width                                    : 720 pixels
Height                                   : 480 pixels
Display aspect ratio                     : 16:9
Frame rate mode                          : Constant
Frame rate                               : 29.970 (30000/1001) FPS
Standard                                 : NTSC
Color space                              : YUV
Chroma subsampling                       : 4:2:0
Bit depth                                : 8 bits
Scan type                                : Interlaced
Scan order                               : Bottom Field First
Compression mode                         : Lossy
Bits/(Pixel*Frame)                       : 0.699
Time code of first frame                 : 00:00:00;00
Stream size                              : 3.78 GiB (86%)
Language                                 : English
Default                                  : Yes
Forced                                   : No
Color primaries                          : BT.601 NTSC
Transfer characteristics                 : BT.601
Matrix coefficients                      : BT.601

Audio
ID                                       : 2
Format                                   : AC-3
Format/Info                              : Audio Coding 3
Commercial name                          : Dolby Digital
Codec ID                                 : A_AC3
Duration                                 : 1 h 14 min 32 s
Bit rate mode                            : Constant
Bit rate                                 : 448 kb/s
Channel(s)                               : 6 channels
Channel layout                           : L R C LFE Ls Rs
Sampling rate                            : 48.0 kHz
Frame rate                               : 31.250 FPS (1536 SPF)
Bit depth                                : 16 bits
Compression mode                         : Lossy
Stream size                              : 239 MiB (5%)
Language                                 : English
Service kind                             : Complete Main
Default                                  : Yes
Forced                                   : No

Subtitle
ID                                       : 5
Format                                   : VobSub
Muxing mode                              : zlib
Codec ID                                 : S_VOBSUB
Codec ID/Info                            : Picture based subtitle format used on DVDs
Duration                                 : 1 h 12 min 10 s
Bit rate                                 : 4 200 b/s
Frame rate                               : 0.112 FPS
Count of elements                        : 486
Stream size                              : 2.17 MiB (0%)
Language                                 : English
Default                                  : No
Forced                                   : No
